<mxfile host="app.diagrams.net" modified="2023-07-06T03:46:22.960Z" agent="Mozilla/5.0 (Windows NT 10.0; Win64; x64) AppleWebKit/537.36 (KHTML, like Gecko) Chrome/114.0.0.0 Safari/537.36" version="21.3.5" etag="c5pTf_ERXxKScKx11-Bv" type="github">
  <diagram name="Страница 1" id="3cnb69df8GMr2CDrw8ft">
    <mxGraphModel>
      <root>
        <mxCell id="0" />
        <mxCell id="1" parent="0" />
      </root>
    </mxGraphModel>
  </diagram>
</mxfile>
